# This file uses centimeters as units for non-parametric coordinates.

mtllib tetrahedron.mtl
g default
v 0.000000 0.000000 1.000000
v 0.866025 0.000000 -0.500000
v -0.433013 0.750000 -0.500000
v -0.433013 -0.750000 -0.500000
vt 0.698110 0.550033
vt 0.410442 0.429233
vt 0.699216 0.233440
vt 0.424086 0.736118
vt 0.402409 0.137431
vt 0.968014 0.334885
vn 0.480384 0.832050 0.277350
vn 0.480384 0.832050 0.277350
vn 0.480384 0.832050 0.277350
vn 0.000000 0.000000 -1.000000
vn 0.000000 0.000000 -1.000000
vn 0.000000 0.000000 -1.000000
vn -0.960769 0.000000 0.277350
vn -0.960769 0.000000 0.277350
vn -0.960769 0.000000 0.277350
vn 0.480384 -0.832050 0.277350
vn 0.480384 -0.832050 0.277350
vn 0.480384 -0.832050 0.277350
s off
g pPlatonic1
usemtl initialShadingGroup
f 1/1/1 2/2/2 3/3/3
f 2/2/4 4/5/5 3/3/6
f 1/1/7 3/3/8 4/6/9
f 1/1/10 4/4/11 2/2/12
